<svg width="200" height="200" viewBox="0 0 200 200" fill="none" xmlns="http://www.w3.org/2000/svg">
<path d="M100 0C44.775 0 0 44.775 0 100C0 155.225 44.775 200 100 200C155.225 200 200 155.225 200 100C200 44.775 155.225 0 100 0ZM100 183.333C57.1333 183.333 21.75 150.792 17.1833 109.125L37.0583 114.417L48.35 72.8917L24.2333 65.5C37.3833 36.7417 66.3667 16.6667 100 16.6667C133.725 16.6667 162.767 36.8417 175.867 65.7167L151.642 72.8833L162.933 114.408L182.8 109.117C178.25 150.792 142.867 183.333 100 183.333ZM92.2 133.067L86.6083 140.625C85.1 142.675 81.85 143.208 79.7667 141.667C77.575 140.067 77.1 137 78.7167 134.808L84.3 127.267C85.9167 125.083 88.975 124.617 91.1583 126.217C93.3417 127.817 93.8167 130.883 92.2 133.067ZM82.3083 125.833L76.6833 133.458C75.1917 135.492 72 136.008 69.8583 134.442C67.6833 132.833 67.175 129.833 68.7833 127.658L74.4167 120.042C76.0083 117.867 79.075 117.392 81.25 118.992C83.4417 120.592 83.925 123.667 82.3083 125.833ZM72.425 118.617L66.8333 126.175C65.3167 128.242 62.05 128.742 59.9833 127.225C57.8 125.625 57.325 122.55 58.925 120.375L64.525 112.817C66.1167 110.633 69.1833 110.158 71.375 111.775C73.5667 113.367 74.025 116.433 72.425 118.617ZM141.442 122.383C143.358 124.292 143.358 127.4 141.442 129.317C139.533 131.225 136.417 131.225 134.517 129.317L120.45 115.25C119.992 114.792 119.25 114.775 118.767 115.217C118.25 115.692 118.225 116.5 118.725 116.992L131.742 130.017C133.65 131.933 133.65 135.033 131.742 136.95C129.833 138.867 126.725 138.867 124.808 136.95L114.225 126.358C113.75 125.883 112.992 125.883 112.517 126.35C112 126.825 112 127.608 112.492 128.1L121.275 136.883C123.183 138.8 123.183 141.892 121.275 143.817C119.367 145.725 116.258 145.725 114.342 143.817L109.808 139.275C110.983 132.042 105.667 126.142 99.175 125.575C97.45 121.475 93.6083 118.733 89.3 118.367C87.65 114.4 83.85 111.533 79.4083 111.142C75.8917 102.75 64.4167 101.2 58.9167 108.7L55.8583 112.833C52.75 111.658 49.3833 110.683 45.5167 109.775L54.3667 77.2417C67.5667 77.125 77.95 64.6167 90.125 72.3167C86.1333 77.2417 82.875 81.175 77.9417 84.0583C74 86.3583 72.1583 90.8667 73.35 95.2833C74.8583 100.817 80.4667 104.683 87.025 104.683C95.6917 104.683 104.658 97.5667 111.483 92.45C115.492 96.45 138.075 118.667 141.442 122.383ZM101.058 133.433C103.242 135.025 103.708 138.1 102.1 140.267L96.5 147.85C95 149.9 91.7667 150.442 89.65 148.892C87.4667 147.292 87 144.225 88.5917 142.042L94.2083 134.458C95.8 132.308 98.8583 131.817 101.058 133.433ZM145.692 77.45L154.692 110.558C151.467 112 148.242 113.675 144.875 115.742C144.875 115.742 123.175 94.325 116.725 87.875C113.292 84.4333 110.917 83.9667 106.942 87.1667C101.883 91.2417 95.6917 95.375 91.125 96.9833C82.1583 100.117 77.2583 92.4833 81.4333 90.05C89.9083 85.1083 94.0417 77.9833 101.15 69.925C103.125 67.6833 105.483 66.8583 107.875 66.8583C110.483 66.8583 113.167 67.8333 115.475 69.0333C126.008 74.475 135.6 78.1917 145.692 77.45ZM110.142 143.067C113.525 146.45 111.025 150 107.258 150C106.283 150 105.208 149.775 104.133 149.217C105.758 147.008 108.15 144.067 109.042 141.958L110.142 143.067Z" fill="white"/>
</svg>
