<svg width="200" height="184" viewBox="0 0 200 184" fill="none" xmlns="http://www.w3.org/2000/svg">
<path d="M112.275 51.9666C108.733 48.3083 108.933 42.575 112.567 39.0333L149.742 2.9833C151.558 1.22498 153.892 0.333313 156.2 0.333313C158.55 0.333313 160.892 1.24998 162.667 3.0916L112.275 51.9666ZM51.1583 143.808C50.3917 144.55 50 145.542 50 146.533C50 148.617 51.7 150.333 53.8 150.333C54.75 150.333 55.7083 149.983 56.4417 149.267L62.6833 143.192L57.4083 137.742L51.1583 143.808ZM103.908 73.6L82.5417 94.308C71.0583 105.442 65.2 116.225 59.7917 131.283L69.225 141.025C84.4333 136.083 95.3917 130.567 106.875 119.433L128.233 98.717L103.908 73.6ZM166.217 9.775L111.183 63.15L138.9 91.7666L193.933 38.4083C197.975 34.5 200 29.3 200 24.0916C200 6.6916 178.917 -2.54169 166.217 9.775ZM150 104.217V167H16.6667V67H83.4417L100.592 50.3333H0V183.667H166.667V88.0583L150 104.217Z" fill="white"/>
</svg>
