<svg width="200" height="200" viewBox="0 0 200 200" fill="none" xmlns="http://www.w3.org/2000/svg">
<path d="M150 108.333H144.333L127.667 125H143.583L158.333 141.667H41.6667L56.5 125H73.5833L56.9167 108.333H50L25 133.333V166.667C25 175.833 32.4167 183.333 41.5833 183.333H158.333C167.5 183.333 175 175.917 175 166.667V133.333L150 108.333ZM141.667 66.25L100.417 107.5L70.9167 78L112.167 36.75L141.667 66.25ZM106.333 19.0833L53.25 72.1666C50 75.4166 50 80.6666 53.25 83.9166L94.5 125.167C97.75 128.417 103 128.417 106.25 125.167L159.25 72.1666C162.5 68.9166 162.5 63.6666 159.25 60.4166L118 19.1666C114.833 15.8333 109.583 15.8333 106.333 19.0833Z" fill="#038000"/>
</svg>
